<svg width="33" height="40" viewBox="0 0 33 40" fill="none" xmlns="http://www.w3.org/2000/svg">
<path d="M32.2492 18.875C32.125 18.7508 31.8742 18.7508 31.75 18.7508C31.375 18.7508 31.1242 18.875 30.8758 19.1258L15.5008 34.5008V22.25C31.6258 19.8758 22.8766 0.750793 22.8766 0.750793C22.75 0.375793 22.2508 0.000793457 21.7493 0.000793457C21.25 0.000793457 20.7485 0.375793 20.6243 0.874993L17.3735 6.62419L14.1227 0.874993C14.0008 0.375775 13.4992 0.000793457 13 0.000793457C12.5008 0.000793457 11.9992 0.375793 11.875 0.874993L8.6242 6.62419L5.3734 0.874993C5.24918 0.375775 4.74994 0.000793457 4.25074 0.000793457C3.75154 0.000793457 3.24994 0.375793 3.12574 0.874993C3.12574 0.874993 -5.62346 20 10.5015 22.3742L10.4992 39.9992H21.7492C27.3742 39.9992 32.9992 34.3742 32.9992 28.7492V20C32.9992 19.5008 32.7508 18.9992 32.2492 18.875L32.2492 18.875Z" fill="#F57059"/>
</svg>
